# xmcd
#
# Track frame offsets:
#	150
#	14531
#	27760
#	39511
#	60179
#	72516
#	84885
#	100077
#	110034
#	127465
#
# Disc length: 1931 seconds
#
# Revision: 0
# Processed by: cddbd v1.5.1PL2 Copyright (c) Steve Scherf et al.
# Submitted via: dBpowerAMP V4.0
#
DISCID=8107890a
DTITLE=Etts James - Gospel
DYEAR=2005
DGENRE=Gospel
TTITLE0=Etta James-Down By The Riverside
TTITLE1=Etta James-Swing Low, Sweet Chariot
TTITLE2=Etta James-Jesus Lover Of My Soul
TTITLE3=Etta James-Oh Happy Day
TTITLE4=Etta James-He's Got The Whole World In His Hands
TTITLE5=Etta James-I'll Make It Alright
TTITLE6=Etta James-To My Father's House
TTITLE7=Etta James-Jesus Is My Kind Of People
TTITLE8=Etta James-Blowin' In The Wind
TTITLE9=Etta James-Walk Over God's Heaven
EXTD=Etta James Gospel Music
EXTT0=
EXTT1=
EXTT2=
EXTT3=
EXTT4=
EXTT5=
EXTT6=
EXTT7=
EXTT8=
EXTT9=
PLAYORDER=
